<svg xmlns="http://www.w3.org/2000/svg" version="1.1" xmlns:xlink="http://www.w3.org/1999/xlink" xmlns:svgjs="http://svgjs.dev/svgjs" viewBox="0 0 1422 800"><defs><filter id="uuunion-blur" x="-100%" y="-100%" width="400%" height="400%" color-interpolation-filters="sRGB">
        <feGaussianBlur in="SourceGraphic" stdDeviation="0 0" result="blur"></feGaussianBlur>
        <feDropShadow stdDeviation="46.769230769230774" in="blur" dx="38" dy="38" flood-color="hsl(270, 73%, 53%)" flood-opacity="1" x="0%" y="0%" width="100%" height="100%"></feDropShadow>
      </filter><filter id="uuunion-blur2" x="-100%" y="-100%" width="400%" height="400%" color-interpolation-filters="sRGB">
        <feGaussianBlur in="SourceGraphic" stdDeviation="0 0" result="blur"></feGaussianBlur>
        <feDropShadow stdDeviation="46.769230769230774" in="blur" dx="-38" dy="-38" flood-color="hsl(270, 73%, 53%)" flood-opacity="1" x="0%" y="0%" width="100%" height="100%"></feDropShadow>
      </filter><linearGradient gradientTransform="rotate(160, 0.5, 0.5)" x1="50%" y1="0%" x2="50%" y2="100%" id="uuunion-grad"><stop stop-color="hsl(162, 100%, 58%)" offset="10%"></stop><stop stop-color="hsl(270, 73%, 53%)" offset="90%"></stop></linearGradient><linearGradient gradientTransform="rotate(132, 0.5, 0.5)" x1="50%" y1="0%" x2="50%" y2="100%" id="uuunion-grad2"><stop stop-color="hsl(162, 100%, 58%)" offset="25%"></stop><stop stop-color="hsl(270, 73%, 53%)" offset="100%"></stop></linearGradient><linearGradient gradientTransform="rotate(353, 0.5, 0.5)" x1="50%" y1="0%" x2="50%" y2="100%" id="uuunion-grad3"><stop stop-color="hsl(162, 100%, 58%)" offset="0%"></stop><stop stop-color="hsl(270, 73%, 53%)" offset="75%"></stop></linearGradient></defs><path d="M-115.1 -84.86Q-102.59 -83.93 -90.09 -82.78 -77.58 -81.48 -65.08 -80.09 -52.57 -78.7 -40.07 -77.38 -27.56 -76.2 -15.06 -75.24 -2.55 -74.55 9.94 -74.17 22.45 -74.11 34.96 -74.39 47.46 -74.98 59.97 -75.86 72.47 -76.97 84.98 -78.25 97.48 -79.62 109.99 -81.02 122.49 -82.36 135 -83.57 147.5 -84.58 160.01 -85.32 172.51 -85.77 185.02 -85.89 197.52 -85.68 210.03 -85.15 222.53 -84.32 235.04 -83.26 247.54 -82.01 260.05 -80.64 272.55 -79.24 285.06 -77.88 297.56 -76.64 310.07 -75.59 322.57 -74.79 335.08 -74.28 347.58 -74.1 360.09 -74.24 372.59 -74.71 385.1 -75.48 397.6 -76.51 410.11 -77.73 422.61 -79.07 435.12 -80.47 447.62 -81.85 460.13 -83.12 472.63 -84.21 485.14 -85.06 497.64 -85.63 510.15 -85.88 522.65 -85.8 535.16 -85.39 547.66 -84.68 560.17 -83.7 572.67 -82.52 585.18 -81.19 597.69 -79.79 610.19 -78.41 622.7 -77.11 635.2 -75.98 647.71 -75.07 660.21 -74.44 672.72 -74.13 685.22 -74.14 697.73 -74.49 710.23 -75.15 722.74 -76.08 735.24 -77.23 747.75 -78.53 760.25 -79.92 772.76 -81.32 785.26 -82.63 797.77 -83.8 810.27 -84.76 822.78 -85.45 835.28 -85.82 847.79 -85.87 860.29 -85.59 872.8 -85 885.3 -84.12 897.81 -83 910.31 -81.72 922.82 -80.34 935.32 -78.95 947.83 -77.61 960.33 -76.4 972.84 -75.4 985.35 -74.66 997.85 -74.21 1010.36 -74.1 1022.86 -74.32 1035.37 -74.85 1047.87 -75.68 1060.38 -76.75 1072.88 -78 1085.39 -79.37 1097.89 -80.77 1110.4 -82.13 1122.9 -83.37 1135.41 -84.41 1147.91 -85.21 1160.42 -85.71 1172.92 -85.89 1185.43 -85.74 1197.93 -85.27 1210.44 -84.49 1222.94 -83.47 1235.45 -82.24 1247.95 -80.89 1260.46 -79.49 1272.96 -78.12 1285.47 -76.85 1297.97 -75.77 1310.48 -74.91 1322.99 -74.35 1335.49 -74.1 1348 -74.19 1360.5 -74.6 1373.01 -75.32 1385.51 -76.3 1398.02 -77.49 1410.52 -78.82 1423.03 -80.22 1435.53 -81.6 1448.04 -82.9 1460.54 -84.03 1473.05 -84.93 1485.55 -85.55 1486.27 -71.28 1494.85 -57 1510.43 -42.73 1531.45 -28.45 1555.77 -14.17 1580.95 0.09 1604.43 14.37 1623.85 28.64 1637.24 42.92 1643.26 57.2 1641.29 71.47 1631.54 85.75 1614.98 100.02 1593.3 114.3 1568.67 128.57 1543.6 142.85 1520.6 157.13 1502.01 171.4 1489.7 185.68 1484.91 199.95 1488.13 214.23 1499.03 228.51 1516.51 242.78 1538.81 257.06 1563.67 271.33 1588.59 285.61 1611.04 299.88 1628.76 314.16 1639.96 328.44 1643.51 342.71 1639.04 356.99 1627.02 371.26 1608.66 385.54 1585.8 399.81 1560.76 414.09 1536.07 428.37 1514.22 442.64 1497.41 456.92 1487.35 471.19 1485.05 485.47 1490.75 499.75 1503.86 514.02 1523.07 528.3 1546.42 542.57 1571.58 556.85 1595.99 571.12 1617.18 585.4 1633.03 599.68 1641.92 613.95 1642.97 628.23 1636.06 642.5 1621.89 656.78 1601.89 671.06 1578.09 685.33 1552.88 699.61 1528.82 713.88 1508.33 728.16 1493.48 742.43 1485.77 756.71 1485.99 770.99 1494.1 785.26 1509.29 799.54 1530.03 813.81 1554.21 828.09 1540.99 833.91 1527.76 842.34 1514.54 852.88 1501.31 864.96 1488.08 877.88 1474.86 890.93 1461.63 903.35 1448.4 914.46 1435.18 923.63 1421.95 930.33 1408.72 934.2 1395.5 935 1382.27 932.71 1369.04 927.44 1355.82 919.5 1342.59 909.32 1329.37 897.5 1316.14 884.68 1302.91 871.6 1289.69 859 1276.46 847.58 1263.23 837.98 1250.01 830.76 1236.78 826.32 1223.55 824.9 1210.33 826.59 1197.1 831.29 1183.88 838.74 1170.65 848.52 1157.42 860.07 1144.2 872.74 1130.97 885.83 1117.74 898.58 1104.52 910.29 1091.29 920.29 1078.06 928.02 1064.84 933.03 1051.61 935.06 1038.39 933.98 1025.16 929.85 1011.93 922.92 998.71 913.56 985.48 902.31 972.25 889.8 959.03 876.73 945.8 863.86 932.57 851.89 919.35 841.5 906.12 833.29 892.9 827.71 879.67 825.09 866.44 825.55 853.22 829.09 839.99 835.5 826.76 844.42 813.54 855.35 800.31 867.66 787.08 880.68 773.86 893.65 760.63 905.85 747.41 916.6 734.18 925.28 720.95 931.4 707.73 934.63 694.5 934.77 681.27 931.83 668.05 925.96 654.82 917.5 641.59 906.92 628.37 894.83 615.14 881.9 601.92 868.86 588.69 856.45 575.46 845.36 562.24 836.23 549.01 829.57 535.78 825.76 522.56 825 509.33 827.34 496.1 832.66 482.88 840.64 469.65 850.84 456.43 862.69 443.2 875.52 429.97 888.59 416.75 901.19 403.52 912.58 390.29 922.14 377.07 929.32 363.84 933.72 350.62 935.09 337.39 933.35 324.16 928.6 310.94 921.11 297.71 911.3 284.48 899.73 271.26 887.04 258.03 873.96 244.81 861.21 231.58 849.53 218.35 839.56 205.13 831.87 191.9 826.9 178.67 824.92 165.45 826.05 152.22 830.23 138.99 837.2 125.77 846.6 112.54 857.87 99.32 870.4 86.09 883.46 72.86 896.33 59.64 908.28 46.41 918.63 33.18 926.81 19.96 932.34 6.73 934.92 -6.48 934.4 -19.71 930.82 -32.94 924.37 -46.16 915.41 -59.39 904.46 -72.62 892.13 -85.84 879.11 -99.07 866.14 -112.29 853.96 -125.52 843.24 -138.75 834.6 -130.42 820.23 -123.27 805.86 -118.04 791.5 -115.25 777.13 -115.17 762.76 -117.83 748.4 -122.94 734.03 -130 719.66 -138.29 705.3 -146.97 690.93 -155.17 676.56 -162.06 662.2 -166.94 647.83 -169.32 633.46 -168.96 619.1 -165.9 604.73 -160.44 590.36 -153.14 576 -144.73 561.63 -136.06 547.26 -128.02 532.9 -121.4 518.53 -116.89 504.16 -114.92 489.8 -115.72 475.43 -119.18 461.06 -124.97 446.7 -132.5 432.33 -141 417.96 -149.63 403.6 -157.5 389.23 -163.83 374.87 -167.97 360.5 -169.5 346.13 -168.28 331.77 -164.42 317.4 -158.32 303.03 -150.59 288.67 -142 274.3 -133.44 259.93 -125.76 245.57 -119.74 231.2 -115.98 216.83 -114.87 202.47 -116.52 188.1 -120.76 173.73 -127.17 159.37 -135.09 145 -143.73 130.63 -152.21 116.27 -159.68 101.9 -165.38 87.53 -168.74 73.17 -169.42 58.8 -167.35 44.43 -162.73 30.07 -156.04 15.7 -147.95 1.33 -139.28 -13.02 -130.91 -27.39 -123.67 -41.76 -118.3 -56.12 -115.34 -70.49 -115.1 -84.86" fill="url(#uuunion-grad)"></path><path d="M-115.11 -84.86Q-115.35 -70.49 -118.31 -56.12 -123.68 -41.76 -130.92 -27.39 -139.29 -13.02 -147.97 1.33 -156.05 15.7 -162.74 30.07 -167.36 44.43 -169.43 58.8 -168.75 73.17 -165.39 87.53 -159.69 101.9 -152.22 116.26 -143.74 130.63 -135.1 145 -127.18 159.36 -120.77 173.73 -116.53 188.1 -114.88 202.46 -115.99 216.83 -119.75 231.2 -125.77 245.56 -133.45 259.93 -142.01 274.3 -150.6 288.66 -158.33 303.03 -164.44 317.4 -168.29 331.76 -169.52 346.13 -167.98 360.5 -163.84 374.86 -154.51 377.91 -145.18 381.51 -135.86 385.58 -126.53 390.01 -117.2 394.69 -107.87 399.5 -98.55 404.32 -89.22 409.04 -79.89 413.53 -70.56 417.68 -61.24 421.39 -51.91 424.55 -42.58 427.1 -33.25 428.97 -15.62 430.39 -12.51 430.48 -1.55 426.39 9.51 421.16 20.7 414.88 31.99 407.69 43.38 399.76 54.86 391.28 66.43 382.47 78.07 373.55 89.78 364.75 101.54 356.29 113.36 348.37 125.22 341.18 137.1 334.86 149.01 329.54 160.93 325.28 172.86 322.11 184.77 320.04 196.67 319 208.54 318.89 220.38 319.6 232.18 320.96 243.93 322.8 255.62 324.9 267.25 327.06 278.8 329.08 290.29 330.76 301.69 331.91 313 332.38 324.23 332.03 335.37 330.76 346.42 328.51 357.37 325.26 368.23 321.03 379 315.88 389.67 309.88 400.26 303.18 410.76 295.91 421.18 288.24 431.52 280.36 441.79 272.45 451.99 264.71 462.14 257.31 472.23 250.41 482.27 244.15 492.28 238.65 502.27 233.99 512.23 230.22 522.19 227.35 532.15 225.35 542.12 224.18 552.11 223.74 562.14 223.92 572.21 224.59 582.33 225.58 592.52 226.72 602.78 227.87 613.12 228.83 623.56 229.47 634.1 229.63 644.75 229.19 655.52 228.07 666.41 226.18 677.44 223.5 688.6 220.02 699.91 215.77 711.37 210.8 722.98 205.19 734.74 199.06 746.66 192.52 758.74 185.72 770.98 178.81 783.37 171.94 795.91 165.25 808.61 158.87 821.45 152.93 834.43 147.54 847.55 142.77 860.8 138.67 874.16 135.28 887.64 132.58 901.21 130.55 914.88 129.14 928.62 128.27 942.42 127.83 956.28 127.73 970.18 127.82 984.1 127.98 998.04 128.09 1011.96 128.02 1025.87 127.64 1039.73 126.87 1053.55 125.61 1067.29 123.8 1080.95 121.41 1094.51 118.4 1107.95 114.81 1121.26 110.64 1134.42 105.96 1147.42 100.84 1160.25 95.37 1172.88 89.63 1185.31 83.76 1197.53 77.84 1209.52 72 1221.28 66.34 1232.79 60.95 1244.05 55.92 1255.05 51.31 1265.79 47.17 1276.26 43.54 1286.45 40.4 1296.37 37.77 1306.02 35.6 1315.39 33.84 1324.5 32.43 1333.34 31.3 1350.11 29.51 1366.16 27.74 1381.08 25.16 1395.4 21.66 1408.9 16.27 1422 9.66 1396.37 -8.7 1374.26 -27.06 1358.69 -45.43 1351.79 -63.8 1354.52 -82.16 1366.49 -100.53 1386.07 -118.9 1410.57 -137.27 1398.39 -137.17 1386.2 -137.22 1374.01 -137.39 1361.82 -137.69 1349.63 -138.11 1337.45 -138.61 1325.26 -139.18 1313.07 -139.79 1300.88 -140.41 1288.7 -141.01 1276.51 -141.56 1264.32 -142.04 1252.13 -142.41 1239.95 -142.67 1227.76 -142.8 1215.57 -142.8 1203.38 -142.66 1191.19 -142.39 1179.01 -142.01 1166.82 -141.53 1154.63 -140.98 1142.44 -140.38 1130.26 -139.76 1118.07 -139.15 1105.88 -138.58 1093.69 -138.08 1081.51 -137.67 1069.32 -137.38 1057.13 -137.21 1044.94 -137.17 1032.75 -137.27 1020.57 -137.51 1008.38 -137.86 996.19 -138.31 984 -138.85 971.82 -139.44 959.63 -140.05 947.44 -140.67 935.25 -141.25 923.06 -141.77 910.88 -142.21 898.69 -142.54 886.5 -142.75 874.31 -142.82 862.13 -142.76 849.94 -142.56 837.75 -142.25 825.56 -141.82 813.38 -141.31 801.19 -140.73 789 -140.12 776.81 -139.5 764.62 -138.9 752.44 -138.36 740.25 -137.9 728.06 -137.54 715.87 -137.29 703.69 -137.18 691.5 -137.2 679.31 -137.36 667.12 -137.64 654.93 -138.04 642.75 -138.53 630.56 -139.09 618.37 -139.7 606.18 -140.32 594 -140.92 581.81 -141.48 569.62 -141.97 557.43 -142.36 545.25 -142.64 533.06 -142.79 520.87 -142.81 508.68 -142.69 496.49 -142.44 484.31 -142.08 472.12 -141.61 459.93 -141.07 447.74 -140.47 435.56 -139.85 423.37 -139.24 411.18 -138.67 398.99 -138.15 386.81 -137.73 374.62 -137.42 362.43 -137.23 350.24 -137.17 338.05 -137.25 325.87 -137.46 313.68 -137.8 301.49 -138.23 289.3 -138.76 277.12 -139.34 264.93 -139.96 252.74 -140.58 240.55 -141.16 228.36 -141.7 216.18 -142.15 203.99 -142.49 191.8 -142.72 179.61 -142.82 167.43 -142.78 155.24 -142.6 143.05 -142.3 130.86 -141.89 118.68 -141.39 106.49 -140.82 94.3 -140.21 82.11 -139.59 69.92 -138.99 57.74 -138.44 45.55 -137.96 33.36 -137.58 21.17 -137.32 8.99 -137.19 -3.19 -137.19 -15.38 -137.32 -27.57 -137.59 -39.76 -137.97 -51.94 -138.45 -64.13 -139 -76.32 -139.6 -88.51 -140.22 -100.69 -140.83 -112.88 -141.4 -125.07 -141.9 -137.69 -135.27 -128.21 -113.83 -120.38 -99.37 -115.11 -84.86" fill="url(#uuunion-grad2)" filter="url(#uuunion-blur)"></path><path d="M1457.32 345.51Q1466.49 344.11 1475.65 342.11 1484.82 339.56 1493.98 336.51 1503.15 333.05 1512.32 329.26 1521.48 325.23 1530.65 321.08 1539.81 316.9 1548.98 312.79 1558.15 308.87 1567.31 305.22 1576.48 301.95 1585.64 299.13 1594.81 296.84 1603.98 295.13 1626.22 311.78 1639.96 328.44 1643.32 345.09 1635.83 361.75 1618.53 378.4 1593.78 395.06 1564.98 411.71 1536.07 428.37 1511.01 445.02 1493.24 461.68 1485.2 478.33 1487.98 494.99 1501.21 511.64 1523.07 528.3 1550.56 544.95 1579.92 561.61 1607.13 578.26 1628.45 594.92 1640.97 611.57 1642.97 628.23 1634.17 644.88 1615.78 661.54 1590.32 678.19 1561.28 694.85 1532.64 711.5 1508.33 728.16 1491.67 744.81 1484.95 761.47 1489.09 778.12 1503.52 794.78 1526.27 811.43 1554.21 828.09 1542.08 833.33 1529.95 840.78 1517.82 850.1 1505.69 860.83 1493.55 872.48 1481.42 884.48 1469.29 896.27 1457.16 907.29 1445.03 917.01 1432.89 924.97 1420.76 930.8 1408.63 934.21 1396.5 935.05 1384.37 933.28 1372.24 928.97 1360.1 922.34 1347.97 913.69 1335.84 903.45 1323.71 892.09 1311.58 880.16 1299.44 868.22 1287.31 856.84 1275.18 846.56 1263.05 837.87 1250.92 831.17 1238.78 826.8 1226.65 824.95 1214.52 825.72 1202.39 829.06 1190.26 834.83 1178.12 842.73 1165.99 852.41 1153.86 863.4 1141.73 875.18 1129.6 887.18 1117.46 898.84 1105.33 909.61 1093.2 918.97 1081.07 926.49 1068.94 931.79 1056.8 934.63 1044.67 934.88 1032.54 932.52 1020.41 927.67 1008.28 920.55 996.14 911.51 984.01 900.97 971.88 889.43 959.75 877.45 947.62 865.59 935.48 854.41 923.35 844.44 911.22 836.17 899.09 829.97 886.96 826.16 874.82 824.9 862.69 826.25 850.56 830.16 838.43 836.43 826.3 844.78 814.16 854.79 802.03 866.01 789.9 877.88 777.77 889.86 765.64 901.37 753.5 911.86 741.37 920.84 729.24 927.88 717.11 932.65 704.98 934.92 692.84 934.57 680.71 931.64 668.58 926.25 656.45 918.67 644.32 909.25 632.18 898.44 620.05 886.75 607.92 874.74 595.79 862.99 583.66 852.04 571.53 842.41 559.39 834.58 547.26 828.9 535.13 825.64 523 824.97 510.87 826.91 498.73 831.38 486.6 838.15 474.47 846.91 462.34 857.24 450.21 868.65 438.07 880.6 425.94 892.52 413.81 903.84 401.68 914.04 389.55 922.61 377.41 929.17 365.28 933.39 353.15 935.07 341.02 934.13 328.89 930.63 316.75 924.72 304.62 916.69 292.49 906.91 280.36 895.86 268.23 884.05 256.09 872.05 243.96 860.43 231.83 849.73 219.7 840.48 207.57 833.1 195.43 827.95 183.3 825.26 171.17 825.18 159.04 827.71 146.91 832.71 134.77 839.96 122.64 849.11 110.51 859.73 98.38 871.31 86.25 883.31 74.11 895.14 61.98 906.26 49.85 916.13 37.72 924.28 25.59 930.33 9.3 929.28 8.69 914.06 11.8 903.55 14.33 893.04 16.17 882.52 17.23 872.01 17.42 856.25 17.82 851 28.82 843.17 39.61 832.92 50.24 820.48 60.78 806.18 71.27 790.44 81.77 773.76 92.34 756.65 103 739.66 113.82 723.33 124.82 708.14 136.03 694.52 147.47 682.8 159.15 673.25 171.09 665.99 183.26 661.03 195.68 658.29 208.31 657.56 221.14 658.54 234.13 660.85 247.25 664.04 260.47 667.64 273.75 671.15 287.03 674.1 300.29 676.03 313.48 676.55 326.57 675.35 339.52 672.21 352.29 667 364.87 659.71 377.24 650.4 389.38 639.27 401.3 626.59 412.98 612.7 424.46 597.99 435.73 582.9 446.83 567.86 457.8 553.32 468.66 539.68 479.46 527.28 490.25 516.41 501.08 507.28 511.99 499.99 523.05 494.58 534.3 490.95 545.79 488.97 557.57 488.37 569.67 488.87 582.14 490.11 594.99 491.7 608.25 493.25 621.92 494.37 636.02 494.71 650.52 493.96 665.41 491.86 680.65 488.24 696.22 482.98 712.06 476.09 728.11 467.6 744.32 457.68 760.6 446.53 776.89 434.41 793.11 421.63 809.17 408.54 824.99 395.48 835.71 389.11 846.42 383.05 857.13 377.44 867.84 372.42 878.55 368.09 889.25 364.54 899.95 361.84 910.64 360.02 921.32 359.11 931.98 359.09 942.64 359.91 953.28 361.51 963.91 363.81 974.52 366.69 985.11 370.02 995.68 373.67 1006.23 377.49 1016.76 381.32 1027.26 385.02 1037.74 388.43 1048.19 391.42 1058.62 393.86 1069.01 395.65 1079.38 396.69 1089.71 396.91 1100.01 396.29 1110.27 394.8 1120.5 392.46 1130.69 389.29 1140.85 385.37 1150.96 380.78 1161.03 375.61 1171.07 370 1181.05 364.06 1191 357.95 1200.9 351.81 1210.76 345.79 1220.56 340.03 1230.32 334.66 1240.04 329.81 1249.7 325.58 1259.31 322.06 1268.88 319.31 1278.39 317.38 1287.85 316.28 1297.26 316 1306.61 316.51 1315.91 317.75 1325.16 319.65 1334.36 322.11 1343.5 325.01 1352.58 328.23 1361.61 331.63 1370.59 335.07 1379.51 338.41 1388.37 341.52 1397.18 344.26 1405.94 346.51 1423.25 348.81 1440.41 348.92 1448.89 347.61 1457.32 345.51" fill="url(#uuunion-grad3)" filter="url(#uuunion-blur2)"></path></svg>