<?xml version="1.0" encoding="UTF-8" standalone="no"?>
<svg
   version="1.1"
   viewBox="0 0 1422 800"
   id="svg9"
   sodipodi:docname="footer_bg_1.svg"
   inkscape:version="1.3.2 (091e20e, 2023-11-25, custom)"
   xmlns:inkscape="http://www.inkscape.org/namespaces/inkscape"
   xmlns:sodipodi="http://sodipodi.sourceforge.net/DTD/sodipodi-0.dtd"
   xmlns="http://www.w3.org/2000/svg"
   xmlns:svg="http://www.w3.org/2000/svg">
  <sodipodi:namedview
     id="namedview9"
     pagecolor="#ffffff"
     bordercolor="#000000"
     borderopacity="0.25"
     inkscape:showpageshadow="2"
     inkscape:pageopacity="0.0"
     inkscape:pagecheckerboard="0"
     inkscape:deskcolor="#d1d1d1"
     inkscape:zoom="0.42217557"
     inkscape:cx="633.62265"
     inkscape:cy="496.23904"
     inkscape:window-width="1366"
     inkscape:window-height="705"
     inkscape:window-x="-8"
     inkscape:window-y="-8"
     inkscape:window-maximized="1"
     inkscape:current-layer="svg9" />
  <defs
     id="defs7">
    <filter
       id="uuunion-blur"
       x="0"
       y="0"
       width="1"
       height="1"
       color-interpolation-filters="sRGB">
      <feGaussianBlur
         in="SourceGraphic"
         stdDeviation="0 0"
         result="blur"
         id="feGaussianBlur1" />
      <feDropShadow
         stdDeviation="46.769230769230774"
         in="blur"
         dx="38"
         dy="38"
         flood-color="hsl(270, 73%, 53%)"
         flood-opacity="1"
         x="0%"
         y="0%"
         width="100%"
         height="100%" />
    </filter>
    <filter
       id="uuunion-blur2"
       x="0"
       y="0"
       width="1"
       height="1"
       color-interpolation-filters="sRGB">
      <feGaussianBlur
         in="SourceGraphic"
         stdDeviation="0 0"
         result="blur"
         id="feGaussianBlur2" />
      <feDropShadow
         stdDeviation="46.769230769230774"
         in="blur"
         dx="-38"
         dy="-38"
         flood-color="hsl(270, 73%, 53%)"
         flood-opacity="1"
         x="0%"
         y="0%"
         width="100%"
         height="100%" />
    </filter>
    <linearGradient
       gradientTransform="matrix(-1.332594,0,0,-0.75041609,1400.5808,853.90737)"
       x1="553.06041"
       y1="-114.4565"
       x2="553.06041"
       y2="1246.0554"
       id="uuunion-grad"
       gradientUnits="userSpaceOnUse">
      <stop
         stop-color="hsl(162, 100%, 58%)"
         offset="10%"
         id="stop2" />
      <stop
         stop-color="hsl(270, 73%, 53%)"
         offset="90%"
         id="stop3" />
    </linearGradient>
    <linearGradient
       gradientTransform="scale(1.6661538,0.6001847)"
       x1="375.85967"
       y1="-237.96008"
       x2="375.85967"
       y2="717.24587"
       id="uuunion-grad2"
       gradientUnits="userSpaceOnUse">
      <stop
         stop-color="hsl(162, 100%, 58%)"
         offset="25%"
         id="stop4" />
      <stop
         stop-color="hsl(270, 73%, 53%)"
         offset="100%"
         id="stop5" />
    </linearGradient>
    <linearGradient
       gradientTransform="scale(1.5982492,0.62568464)"
       x1="516.70914"
       y1="471.6913"
       x2="516.70914"
       y2="1494.2352"
       id="uuunion-grad3"
       gradientUnits="userSpaceOnUse">
      <stop
         stop-color="hsl(162, 100%, 58%)"
         offset="0%"
         id="stop6" />
      <stop
         stop-color="hsl(270, 73%, 53%)"
         offset="75%"
         id="stop7" />
    </linearGradient>
  </defs>
  <path
     d="m 1515.6808,938.76737 q -12.51,-0.93 -25.01,-2.08 -12.51,-1.3 -25.01,-2.69 -12.51,-1.39 -25.01,-2.71 -12.51,-1.18 -25.01,-2.14 -12.51,-0.69 -25,-1.07 -12.51,-0.06 -25.02,0.22 -12.5,0.59 -25.01,1.47 -12.5,1.11 -25.01,2.39 -12.5,1.37 -25.01,2.77 -12.5,1.34 -25.01,2.55 -12.5,1.01 -25.01,1.75 -12.5,0.45 -25.01,0.57 -12.5,-0.21 -25.01,-0.74 -12.5,-0.83 -25.01,-1.89 -12.5,-1.25 -25.01,-2.62 -12.5,-1.4 -25.01,-2.76 -12.5,-1.24 -25.01,-2.29 -12.5,-0.8 -25.01,-1.31 -12.5,-0.18 -25.01,-0.04 -12.5,0.47 -25.01,1.24 -12.5,1.03 -25.00997,2.25 -12.5,1.34 -25.01,2.74 -12.5,1.38 -25.01,2.65 -12.5,1.09 -25.01,1.94 -12.5,0.57 -25.01,0.82 -12.5,-0.08 -25.01,-0.49 -12.5,-0.71 -25.01,-1.69 -12.5,-1.18 -25.01,-2.51 -12.51,-1.4 -25.01,-2.78 -12.51,-1.3 -25.01,-2.43 -12.51,-0.91 -25.01,-1.54 -12.51,-0.31 -25.01,-0.3 -12.51,0.35 -25.01,1.01 -12.51,0.93 -25.01,2.08 -12.51,1.3 -25.01,2.69 -12.51,1.4 -25.01,2.71 -12.51,1.17 -25.01,2.13 -12.51,0.69 -25.01,1.06 -12.51,0.05 -25.01,-0.23 -12.51,-0.59 -25.01,-1.47 -12.51,-1.12 -25.01,-2.4 -12.51,-1.38 -25.01,-2.77 -12.51,-1.34 -25.01,-2.55 -12.51,-1 -25.02,-1.74 -12.5,-0.45 -25.01,-0.56 -12.5,0.22 -25.01,0.75 -12.5,0.83 -25.01,1.9 -12.5,1.25 -25.01,2.62 -12.5,1.4 -25.01,2.76 -12.5,1.24 -25.01,2.28 -12.5,0.8 -25.01,1.3 -12.5,0.18 -25.01,0.03 -12.5,-0.47 -25.01,-1.25 -12.5,-1.02 -25.01,-2.25 -12.5,-1.35 -25.01,-2.75 -12.5,-1.37 -25.01,-2.64 -12.5,-1.08 -25.009996,-1.94 -12.51,-0.56 -25.01,-0.81 -12.51,0.09 -25.01,0.5 -12.51,0.72 -25.01,1.7 -12.5100004,1.19 -25.0100004,2.52 -12.5099996,1.4 -25.0099996,2.78 -12.51,1.3 -25.01,2.43 -12.51,0.9 -25.01,1.52 -0.72,-14.27 -9.3,-28.55 -15.580004,-14.27 -36.600004,-28.55 -24.32,-14.28 -49.5,-28.54 -23.48,-14.28 -42.9,-28.55 -13.39,-14.28 -19.41,-28.56 1.97,-14.27 11.72,-28.55 16.56,-14.27 38.24,-28.55 24.63,-14.27 49.7,-28.55 23,-14.28 41.59,-28.55 12.310004,-14.28 17.100004,-28.55 -3.22,-14.28 -14.12,-28.56 -17.480004,-14.27 -39.780004,-28.55 -24.86,-14.27 -49.78,-28.55 -22.45,-14.27 -40.17,-28.55 -11.2,-14.28 -14.75,-28.55 4.47,-14.28 16.49,-28.55 18.36,-14.28 41.22,-28.55 25.04,-14.28 49.73,-28.56 21.85,-14.27 38.660004,-28.55 10.06,-14.27 12.36,-28.55 -5.7,-14.28 -18.810004,-28.55 -19.21,-14.28 -42.56,-28.55 -25.16,-14.28 -49.57,-28.55 -21.19,-14.28 -37.04,-28.56 -8.89,-14.27 -9.94,-28.55 6.91,-14.27 21.08,-28.55 20,-14.28 43.8,-28.55 25.21,-14.28 49.27,-28.55 20.49,-14.28 35.340004,-28.55 7.71,-14.280004 7.49,-28.560004 -8.11,-14.27 -23.300004,-28.55 -20.74,-14.27 -44.92,-28.55 13.22,-5.82 26.45,-14.25 13.22,-10.5400004 26.45,-22.62 13.230004,-12.92 26.450004,-25.97 13.23,-12.42 26.46,-23.53 13.22,-9.17 26.45,-15.87 13.2299996,-3.87 26.4499996,-4.67 13.2300004,2.29 26.4600004,7.56 13.22,7.94 26.45,18.12 13.22,11.82 26.45,24.64 13.23,13.08 26.449996,25.6799996 13.23,11.42 26.46,21.0200004 13.22,7.22 26.45,11.66 13.23,1.42 26.45,-0.27 13.23,-4.7 26.45,-12.15 13.23,-9.7800004 26.46,-21.3300004 13.22,-12.6699996 26.45,-25.7599996 13.23,-12.75 26.45,-24.46 13.23,-10 26.46,-17.73 13.22,-5.01 26.45,-7.04 13.22,1.08 26.45,5.21 13.23,6.93 26.45,16.29 13.23,11.25 26.46,23.76 13.22,13.07 26.45,25.9399996 13.23,11.97 26.45,22.3600004 13.23,8.21 26.45,13.79 13.23,2.62 26.46,2.16 13.22,-3.54 26.45,-9.95 13.23,-8.9200004 26.45,-19.8500004 13.23,-12.3099996 26.46,-25.3299996 13.22,-12.97 26.45,-25.17 13.22,-10.75 26.45,-19.43 13.23,-6.12 26.45,-9.35 13.23,-0.14 26.46,2.8 13.22,5.87 26.45,14.33 13.23,10.58 26.45,22.67 13.23,12.93 26.45,25.97 13.23,12.4099996 26.46,23.4999996 13.22,9.1300004 26.45,15.7900004 13.23,3.81 26.45,4.57 13.23,-2.34 26.46,-7.66 13.22,-7.98 26.45,-18.1800004 13.22,-11.85 26.45,-24.6799996 13.23,-13.07 26.45,-25.67 13.23,-11.39 26.45997,-20.95 13.22,-7.18 26.45,-11.58 13.22,-1.37 26.45,0.37 13.23,4.75 26.45,12.24 13.23,9.81 26.46,21.38 13.22,12.69 26.45,25.77 13.22,12.7499996 26.45,24.4299996 13.23,9.9700004 26.45,17.6600004 13.23,4.97 26.46,6.95 13.22,-1.13 26.45,-5.31 13.23,-6.97 26.45,-16.3700004 13.23,-11.27 26.45,-23.7999996 13.23,-13.06 26.46,-25.93 13.22,-11.95 26.45,-22.3 13.23,-8.18 26.45,-13.71 13.23,-2.58 26.44,-2.06 13.23,3.58 26.46,10.03 13.22,8.96 26.45,19.91 13.23,12.33 26.45,25.35 13.23,12.97 26.45,25.14999957 13.23,10.72000043 26.46,19.36000043 -8.33,14.37 -15.48,28.74 -5.23,14.36 -8.02,28.73 -0.08,14.37 2.58,28.730004 5.11,14.37 12.17,28.74 8.29,14.36 16.97,28.73 8.2,14.37 15.09,28.73 4.88,14.37 7.26,28.74 -0.36,14.36 -3.42,28.73 -5.46,14.37 -12.76,28.73 -8.41,14.37 -17.08,28.74 -8.04,14.36 -14.66,28.73 -4.51,14.37 -6.48,28.73 0.8,14.37 4.26,28.74 5.79,14.36 13.32,28.73 8.5,14.37 17.13,28.73 7.87,14.37 14.2,28.73 4.14,14.37 5.67,28.74 -1.22,14.36 -5.08,28.73 -6.1,14.37 -13.83,28.73 -8.59,14.37 -17.15,28.74 -7.68,14.36 -13.7,28.73 -3.76,14.37 -4.87,28.73 1.65,14.37 5.89,28.74 6.41,14.36 14.33,28.73 8.64,14.37 17.12,28.73 7.47,14.37 13.17,28.74 3.36,14.36 4.04,28.73 -2.07,14.37 -6.69,28.73 -6.69,14.37 -14.78,28.74 -8.67,14.35 -17.04,28.72 -7.24,14.37 -12.61,28.73 -2.96,14.37 -3.2,28.74"
     fill="url(#uuunion-grad)"
     id="path7"
     style="fill:url(#uuunion-grad)" />
  <path
     d="m -115.11,-84.86 q -0.24,14.37 -3.2,28.74 -5.37,14.36 -12.61,28.73 -8.37,14.37 -17.05,28.72 -8.08,14.37 -14.77,28.74 -4.62,14.36 -6.69,28.73 0.68,14.37 4.04,28.73 5.7,14.37 13.17,28.73 8.48,14.37 17.12,28.74 7.92,14.36 14.33,28.73 4.24,14.37 5.89,28.73 -1.11,14.37 -4.87,28.74 -6.02,14.36 -13.7,28.73 -8.56,14.37 -17.15,28.73 -7.73,14.37 -13.84,28.74 -3.85,14.36 -5.08,28.73 1.54,14.37 5.68,28.73 9.33,3.05 18.66,6.65 9.32,4.07 18.65,8.5 9.33,4.68 18.66,9.49 9.32,4.82 18.65,9.54 9.33,4.49 18.66,8.64 9.32,3.71 18.65,6.87 9.33,2.55 18.66,4.42 17.63,1.42 20.74,1.51 10.96,-4.09 22.02,-9.32 11.19,-6.28 22.48,-13.47 11.39,-7.93 22.87,-16.41 11.57,-8.81 23.21,-17.73 11.71,-8.8 23.47,-17.26 11.82,-7.92 23.68,-15.11 11.88,-6.32 23.79,-11.64 11.92,-4.26 23.85,-7.43 11.91,-2.07 23.81,-3.11 11.87,-0.11 23.71,0.6 11.8,1.36 23.55,3.2 11.69,2.1 23.32,4.26 11.55,2.02 23.04,3.7 11.4,1.15 22.71,1.62 11.23,-0.35 22.37,-1.62 11.05,-2.25 22,-5.5 10.86,-4.23 21.63,-9.38 10.67,-6 21.26,-12.7 10.5,-7.27 20.92,-14.94 10.34,-7.88 20.61,-15.79 10.2,-7.74 20.35,-15.14 10.09,-6.9 20.13,-13.16 10.01,-5.5 20,-10.16 9.96,-3.77 19.92,-6.64 9.96,-2 19.93,-3.17 9.99,-0.44 20.02,-0.26 10.07,0.67 20.19,1.66 10.19,1.14 20.45,2.29 10.34,0.96 20.78,1.6 10.54,0.16 21.19,-0.28 10.77,-1.12 21.66,-3.01 11.03,-2.68 22.19,-6.16 11.31,-4.25 22.77,-9.22 11.61,-5.61 23.37,-11.74 11.92,-6.54 24,-13.34 12.24,-6.91 24.63,-13.78 12.54,-6.69 25.24,-13.07 12.84,-5.94 25.82,-11.33 13.12,-4.77 26.37,-8.87 13.36,-3.39 26.84,-6.09 13.57,-2.03 27.24,-3.44 13.74,-0.87 27.54,-1.31 13.86,-0.1 27.76,-0.01 13.92,0.16 27.86,0.27 13.92,-0.07 27.83,-0.45 13.86,-0.77 27.68,-2.03 13.74,-1.81 27.4,-4.2 13.56,-3.01 27,-6.6 13.31,-4.17 26.47,-8.85 13,-5.12 25.83,-10.59 12.63,-5.74 25.06,-11.61 12.22,-5.92 24.21,-11.76 11.76,-5.66 23.27,-11.05 11.26,-5.03 22.26,-9.64 10.74,-4.14 21.21,-7.77 10.19,-3.14 20.11,-5.77 9.65,-2.17 19.02,-3.93 9.11,-1.41 17.95,-2.54 16.77,-1.79 32.82,-3.56 14.92,-2.58 29.24,-6.08 13.5,-5.39 26.6,-12 -25.63,-18.36 -47.74,-36.72 -15.57,-18.37 -22.47,-36.74 2.73,-18.36 14.7,-36.73 19.58,-18.37 44.08,-36.74 -12.18,0.1 -24.37,0.05 -12.19,-0.17 -24.38,-0.47 -12.19,-0.42 -24.37,-0.92 -12.19,-0.57 -24.38,-1.18 -12.19,-0.62 -24.37,-1.22 -12.19,-0.55 -24.38,-1.03 -12.19,-0.37 -24.37,-0.63 -12.19,-0.13 -24.38,-0.13 -12.19,0.14 -24.38,0.41 -12.18,0.38 -24.37,0.86 -12.19,0.55 -24.38,1.15 -12.18,0.62 -24.37,1.23 -12.19,0.57 -24.38,1.07 -12.18,0.41 -24.37,0.7 -12.19,0.17 -24.38,0.21 -12.19,-0.1 -24.37,-0.34 -12.19,-0.35 -24.38,-0.8 -12.19,-0.54 -24.37,-1.13 -12.19,-0.61 -24.38,-1.23 -12.19,-0.58 -24.38,-1.1 -12.18,-0.44 -24.37,-0.77 -12.19,-0.21 -24.38,-0.28 -12.18,0.06 -24.37,0.26 -12.19,0.31 -24.38,0.74 -12.18,0.51 -24.37,1.09 -12.19,0.61 -24.38,1.23 -12.19,0.6 -24.37,1.14 -12.19,0.46 -24.38,0.82 -12.19,0.25 -24.37,0.36 -12.19,-0.02 -24.38,-0.18 -12.19,-0.28 -24.38,-0.68 -12.18,-0.49 -24.37,-1.05 -12.19,-0.61 -24.38,-1.23 -12.18,-0.6 -24.37,-1.16 -12.19,-0.49 -24.38,-0.88 -12.18,-0.28 -24.37,-0.43 -12.19,-0.02 -24.38,0.1 -12.19,0.25 -24.37,0.61 -12.19,0.47 -24.38,1.01 -12.19,0.6 -24.37,1.22 -12.19,0.61 -24.38,1.18 -12.19,0.52 -24.37,0.94 -12.19,0.31 -24.38,0.5 -12.19,0.06 -24.38,-0.02 -12.18,-0.21 -24.37,-0.55 -12.19,-0.43 -24.38,-0.96 -12.18,-0.58 -24.37,-1.2 -12.19,-0.62 -24.38,-1.2 -12.19,-0.54 -24.37,-0.99 -12.19,-0.34 -24.38,-0.57 -12.19,-0.1 -24.37,-0.06 -12.19,0.18 -24.38,0.48 -12.19,0.41 -24.37,0.91 -12.19,0.57 -24.38,1.18 -12.19,0.62 -24.38,1.22 -12.18,0.55 -24.37,1.03 -12.19,0.38 -24.38,0.64 -12.18,0.13 -24.36,0.13 -12.19,-0.13 -24.38,-0.4 -12.19,-0.38 -24.37,-0.86 -12.19,-0.55 -24.38,-1.15 -12.19,-0.62 -24.37,-1.23 -12.19,-0.57 -24.38,-1.07 -12.62,6.63 -3.14,28.07 7.83,14.46 13.1,28.97"
     fill="url(#uuunion-grad2)"
     filter="url(#uuunion-blur)"
     id="path8"
     style="fill:url(#uuunion-grad2)"
     transform="rotate(180,690.19443,388.98866)" />
  <path
     d="m 1457.32,345.51 q 9.17,-1.4 18.33,-3.4 9.17,-2.55 18.33,-5.6 9.17,-3.46 18.34,-7.25 9.16,-4.03 18.33,-8.18 9.16,-4.18 18.33,-8.29 9.17,-3.92 18.33,-7.57 9.17,-3.27 18.33,-6.09 9.17,-2.29 18.34,-4 22.24,16.65 35.98,33.31 3.36,16.65 -4.13,33.31 -17.3,16.65 -42.05,33.31 -28.8,16.65 -57.71,33.31 -25.06,16.65 -42.83,33.31 -8.04,16.65 -5.26,33.31 13.23,16.65 35.09,33.31 27.49,16.65 56.85,33.31 27.21,16.65 48.53,33.31 12.52,16.65 14.52,33.31 -8.8,16.65 -27.19,33.31 -25.46,16.65 -54.5,33.31 -28.64,16.65 -52.95,33.31 -16.66,16.65 -23.38,33.31 4.14,16.65 18.57,33.31 22.75,16.65 50.69,33.31 -12.13,5.24 -24.26,12.69 -12.13,9.32 -24.26,20.05 -12.14,11.65 -24.27,23.65 -12.13,11.79 -24.26,22.81 -12.13,9.72 -24.27,17.68 -12.13,5.83 -24.26,9.24 -12.13,0.84 -24.26,-0.93 -12.13,-4.31 -24.27,-10.94 -12.13,-8.65 -24.26,-18.89 -12.13,-11.36 -24.26,-23.29 -12.14,-11.94 -24.27,-23.32 -12.13,-10.28 -24.26,-18.97 -12.13,-6.7 -24.27,-11.07 -12.13,-1.85 -24.26,-1.08 -12.13,3.34 -24.26,9.11 -12.14,7.9 -24.27,17.58 -12.13,10.99 -24.26,22.77 -12.13,12 -24.27,23.66 -12.13,10.77 -24.26,20.13 -12.13,7.52 -24.26,12.82 -12.14,2.84 -24.27,3.09 -12.13,-2.36 -24.26,-7.21 -12.13,-7.12 -24.27,-16.16 -12.13,-10.54 -24.26,-22.08 -12.13,-11.98 -24.26,-23.84 -12.14,-11.18 -24.27,-21.15 -12.13,-8.27 -24.26,-14.47 -12.13,-3.81 -24.27,-5.07 -12.13,1.35 -24.26,5.26 -12.13,6.27 -24.26,14.62 -12.14,10.01 -24.27,21.23 -12.13,11.87 -24.26,23.85 -12.13,11.51 -24.27,22 -12.13,8.98 -24.26,16.02 -12.13,4.77 -24.26,7.04 -12.14,-0.35 -24.27,-3.28 -12.13,-5.39 -24.26,-12.97 -12.13,-9.42 -24.27,-20.23 -12.13,-11.69 -24.26,-23.7 -12.13,-11.75 -24.26,-22.7 -12.13,-9.63 -24.27,-17.46 -12.13,-5.68 -24.26,-8.94 -12.13,-0.67 -24.26,1.27 -12.14,4.47 -24.27,11.24 -12.13,8.76 -24.26,19.09 -12.13,11.41 -24.27,23.36 -12.13,11.92 -24.26,23.24 -12.13,10.2 -24.26,18.77 -12.14,6.56 -24.27,10.78 -12.13,1.68 -24.26,0.74 -12.13,-3.5 -24.27,-9.41 -12.13,-8.03 -24.26,-17.81 -12.13,-11.05 -24.26,-22.86 -12.14,-12 -24.27,-23.62 -12.13,-10.7 -24.26,-19.95 -12.13,-7.38 -24.27,-12.53 -12.13,-2.69 -24.26,-2.77 -12.13,2.53 -24.26,7.53 -12.14,7.25 -24.27,16.4 -12.13,10.62 -24.26,22.2 -12.13,12 -24.27,23.83 -12.13,11.12 -24.26,20.99 -12.13,8.15 -24.26,14.2 -16.29,-1.05 -16.9,-16.27 3.11,-10.51 5.64,-21.02 1.84,-10.52 2.9,-21.03 0.19,-15.76 0.59,-21.01 11,-7.83 21.79,-18.08 10.63,-12.44 21.17,-26.74 10.49,-15.74 20.99,-32.42 10.57,-17.11 21.23,-34.1 10.82,-16.33 21.82,-31.52 11.21,-13.62 22.65,-25.34 11.68,-9.55 23.62,-16.81 12.17,-4.96 24.59,-7.7 12.63,-0.73 25.46,0.25 12.99,2.31 26.11,5.5 13.22,3.6 26.5,7.11 13.28,2.95 26.54,4.88 13.19,0.52 26.28,-0.68 12.95,-3.14 25.72,-8.35 12.58,-7.29 24.95,-16.6 12.14,-11.13 24.06,-23.81 11.68,-13.89 23.16,-28.6 11.27,-15.09 22.37,-30.13 10.97,-14.54 21.83,-28.18 10.8,-12.4 21.59,-23.27 10.83,-9.13 21.74,-16.42 11.06,-5.41 22.31,-9.04 11.49,-1.98 23.27,-2.58 12.1,0.5 24.57,1.74 12.85,1.59 26.11,3.14 13.67,1.12 27.77,1.46 14.5,-0.75 29.39,-2.85 15.24,-3.62 30.81,-8.88 15.84,-6.89 31.89,-15.38 16.21,-9.92 32.49,-21.07 16.29,-12.12 32.51,-24.9 16.06,-13.09 31.88,-26.15 10.72,-6.37 21.43,-12.43 10.71,-5.61 21.42,-10.63 10.71,-4.33 21.41,-7.88 10.7,-2.7 21.39,-4.52 10.68,-0.91 21.34,-0.93 10.66,0.82 21.3,2.42 10.63,2.3 21.24,5.18 10.59,3.33 21.16,6.98 10.55,3.82 21.08,7.65 10.5,3.7 20.98,7.11 10.45,2.99 20.88,5.43 10.39,1.79 20.76,2.83 10.33,0.22 20.63,-0.4 10.26,-1.49 20.49,-3.83 10.19,-3.17 20.35,-7.09 10.11,-4.59 20.18,-9.76 10.04,-5.61 20.02,-11.55 9.95,-6.11 19.85,-12.25 9.86,-6.02 19.66,-11.78 9.76,-5.37 19.48,-10.22 9.66,-4.23 19.27,-7.75 9.57,-2.75 19.08,-4.68 9.46,-1.1 18.87,-1.38 9.35,0.51 18.65,1.75 9.25,1.9 18.45,4.36 9.14,2.9 18.22,6.12 9.03,3.4 18.01,6.84 8.92,3.34 17.78,6.45 8.81,2.74 17.57,4.99 17.31,2.3 34.47,2.41 8.48,-1.31 16.91,-3.41"
     fill="url(#uuunion-grad3)"
     filter="url(#uuunion-blur2)"
     id="path9"
     style="fill:url(#uuunion-grad3)"
     transform="rotate(180,745.29478,390.00014)" />
</svg>
