<?xml version="1.0"?>
<svg xmlns="http://www.w3.org/2000/svg" id="svg" version="1.1" width="800" height="800" fill="#40c9ff">
  <path d="M542.500 157.079 C 533.140 159.086,520.397 164.590,512.241 170.147 C 506.637 173.965,457.825 222.095,454.969 226.618 C 453.886 228.333,453.000 231.113,453.000 232.797 C 453.000 236.563,451.292 238.357,445.768 240.395 C 431.685 245.592,407.606 254.782,388.500 262.253 C 363.388 272.072,264.724 310.113,240.000 319.508 C 230.925 322.956,217.200 328.257,209.500 331.288 C 201.800 334.319,189.425 339.115,182.000 341.946 C 174.575 344.777,161.750 349.734,153.500 352.962 C 145.250 356.190,131.300 361.588,122.500 364.958 C 92.579 376.417,90.527 377.351,90.193 379.672 C 90.001 381.007,90.750 382.415,92.193 383.431 C 95.597 385.826,110.927 390.502,123.674 393.032 C 139.021 396.079,141.657 395.575,150.520 387.908 C 154.359 384.586,161.455 379.372,166.288 376.321 C 174.715 371.001,187.903 365.468,190.273 366.258 C 190.895 366.465,186.025 370.291,179.452 374.760 C 159.694 388.191,148.036 401.593,142.817 416.875 C 141.007 422.176,140.549 425.736,140.527 434.690 L 140.500 445.880 144.000 449.507 C 147.621 453.258,158.447 458.967,165.585 460.888 C 173.322 462.971,187.514 465.167,193.743 465.245 C 201.140 465.337,202.086 464.672,209.027 454.500 C 217.051 442.741,228.505 433.180,239.642 428.946 C 242.100 428.012,242.194 428.069,240.905 429.718 C 240.139 430.698,235.635 435.325,230.897 440.000 C 210.234 460.386,201.606 484.068,206.533 506.873 C 208.716 516.976,211.056 520.682,217.440 524.147 C 224.696 528.085,232.814 529.506,247.743 529.451 C 263.594 529.391,264.463 528.960,270.500 518.145 C 272.700 514.205,276.497 508.257,278.938 504.929 C 283.653 498.501,295.340 487.000,297.159 487.000 C 297.861 487.000,297.914 487.442,297.307 488.250 C 292.125 495.156,282.022 511.837,278.810 518.790 C 272.802 531.794,271.000 540.081,271.000 554.704 C 271.000 573.511,274.651 585.140,281.882 589.363 C 290.152 594.193,311.816 596.540,321.500 593.655 C 325.919 592.338,326.509 591.421,333.959 574.288 C 339.965 560.475,352.420 542.396,362.058 533.500 C 366.313 529.573,365.433 531.956,359.197 541.247 C 352.266 551.574,347.622 560.292,344.146 569.500 C 337.846 586.190,337.499 588.157,337.518 607.000 C 337.537 624.166,337.600 624.681,340.816 633.950 C 349.218 658.161,354.995 662.473,373.861 658.615 C 383.520 656.640,390.552 653.620,392.511 650.607 C 393.264 649.448,394.177 646.025,394.539 643.000 C 395.466 635.267,398.615 624.780,402.638 616.032 C 406.330 608.001,411.979 598.645,412.699 599.366 C 412.943 599.609,411.291 606.256,409.030 614.137 C 400.273 644.660,401.594 675.191,412.686 698.618 C 417.623 709.044,419.782 706.850,429.533 681.500 C 433.764 670.500,439.905 654.525,443.181 646.000 C 446.456 637.475,451.084 625.550,453.466 619.500 C 455.848 613.450,458.914 605.575,460.280 602.000 C 461.646 598.425,463.902 592.575,465.294 589.000 C 468.891 579.765,484.337 539.681,500.939 496.500 C 514.964 460.020,523.669 437.490,546.528 378.500 C 552.922 362.000,558.804 347.488,559.600 346.250 C 560.468 344.899,562.048 344.000,563.555 344.000 C 564.935 344.000,567.512 343.376,569.282 342.614 C 571.058 341.849,584.187 329.415,598.584 314.864 C 627.285 285.855,632.013 279.673,637.120 264.473 C 640.577 254.185,642.349 240.790,641.482 231.500 C 638.645 201.107,623.052 177.764,596.764 164.556 C 578.377 155.317,561.536 152.997,542.500 157.079 M577.356 169.585 C 596.391 174.496,611.603 188.880,617.029 207.097 C 619.216 214.441,619.804 232.630,617.965 236.066 C 616.372 239.043,612.866 238.387,606.676 233.955 C 603.569 231.730,599.446 229.249,597.513 228.441 C 594.377 227.131,594.000 227.139,594.000 228.520 C 594.000 229.370,595.125 232.287,596.500 235.000 C 599.421 240.764,599.822 244.530,597.418 243.607 C 596.548 243.273,595.515 243.000,595.121 243.000 C 594.728 243.000,591.323 240.975,587.555 238.500 C 576.110 230.983,575.106 233.083,583.873 246.198 C 590.953 256.791,588.261 257.683,575.417 249.000 C 562.301 240.133,560.177 241.282,568.437 252.780 C 571.462 256.990,575.000 263.802,575.000 265.416 C 575.000 266.839,568.530 263.241,561.500 257.909 C 552.039 250.732,548.340 248.655,546.367 249.413 C 545.238 249.846,545.155 250.421,545.992 251.985 C 546.585 253.093,546.774 254.000,546.413 254.000 C 546.051 254.000,546.324 254.686,547.020 255.524 C 549.245 258.205,547.167 258.365,543.777 255.773 C 537.988 251.346,498.139 211.013,497.469 208.902 C 495.761 203.520,517.086 183.085,532.691 175.150 C 545.586 168.594,564.418 166.247,577.356 169.585 M463.791 242.786 C 465.051 243.610,467.237 246.255,468.649 248.665 C 470.061 251.074,472.181 253.558,473.358 254.185 C 480.235 257.844,487.637 266.290,486.461 269.137 C 486.152 269.887,470.750 277.925,452.236 287.000 C 428.271 298.746,417.184 304.724,413.753 307.750 C 410.129 310.945,408.102 312.000,405.583 312.000 C 401.817 312.000,342.717 341.002,332.279 347.972 C 328.962 350.188,325.330 352.000,324.209 352.000 C 323.087 352.000,313.019 356.551,301.835 362.113 C 270.653 377.621,251.801 385.749,253.541 382.933 C 254.760 380.961,273.206 369.518,298.500 355.043 C 304.550 351.581,311.750 347.096,314.500 345.077 C 317.250 343.057,321.806 340.462,324.625 339.310 C 327.444 338.157,338.919 331.844,350.125 325.280 C 361.331 318.716,374.297 311.182,378.938 308.538 C 383.578 305.893,390.244 301.766,393.751 299.365 C 397.257 296.964,400.577 295.000,401.128 295.000 C 402.258 295.000,445.534 270.175,454.000 264.670 C 463.962 258.193,464.348 256.885,455.542 259.445 C 447.930 261.658,393.053 284.044,390.500 285.978 C 389.950 286.395,385.900 288.083,381.500 289.730 C 377.100 291.377,368.055 294.778,361.401 297.289 C 354.746 299.799,347.546 302.170,345.401 302.558 L 341.500 303.264 344.000 301.294 C 348.084 298.077,357.994 292.514,386.000 277.718 C 400.575 270.017,415.425 262.158,419.000 260.253 C 422.575 258.349,430.225 254.362,436.000 251.395 C 441.775 248.427,448.937 244.643,451.916 242.985 C 457.528 239.862,459.273 239.832,463.791 242.786 M496.500 275.730 C 500.332 279.121,504.000 284.166,504.000 286.044 C 504.000 287.183,501.713 289.638,498.250 292.216 C 479.003 306.545,444.134 334.209,443.615 335.561 C 442.208 339.227,443.205 341.645,448.216 346.719 C 453.886 352.460,456.289 353.134,460.180 350.073 C 462.094 348.567,488.156 314.560,503.727 293.250 C 505.256 291.157,506.950 290.000,508.484 290.000 C 511.556 290.000,520.415 298.533,521.394 302.435 C 522.037 304.995,521.508 305.954,516.717 310.911 C 513.746 313.985,507.307 321.225,502.408 327.000 C 497.508 332.775,489.716 341.775,485.092 347.000 C 469.228 364.925,468.102 367.824,474.587 374.054 C 478.405 377.722,482.519 383.000,481.559 383.000 C 481.242 383.000,478.290 380.525,475.000 377.500 C 465.624 368.880,466.007 368.711,448.175 389.334 C 443.404 394.852,436.575 402.708,433.000 406.790 C 419.285 422.451,414.999 428.195,415.033 430.870 C 415.057 432.813,417.913 436.548,425.962 445.163 C 436.730 456.689,442.330 464.377,438.311 462.117 C 436.239 460.953,415.824 443.334,414.999 441.998 C 414.699 441.514,413.154 440.442,411.564 439.617 C 407.424 437.470,404.825 439.117,395.902 449.544 C 391.831 454.302,385.478 461.639,381.784 465.848 C 378.091 470.056,372.916 475.975,370.284 479.000 C 363.411 486.902,353.038 496.371,355.496 492.500 C 356.544 490.850,359.184 486.575,361.363 483.000 C 363.542 479.426,372.902 466.438,382.163 454.139 C 393.636 438.900,399.000 430.969,399.000 429.241 C 399.000 427.339,395.567 423.163,385.250 412.513 C 377.688 404.707,370.303 397.760,368.841 397.076 C 365.370 395.453,364.702 395.832,348.915 408.379 C 323.808 428.333,295.366 448.564,297.593 444.885 C 298.678 443.093,314.959 427.645,327.500 416.508 C 332.450 412.113,341.113 404.295,346.750 399.135 C 359.619 387.356,359.740 386.677,350.651 377.153 C 342.891 369.021,334.717 358.950,335.357 358.310 C 336.395 357.272,340.957 360.785,350.604 370.053 C 356.172 375.402,361.667 380.077,362.814 380.441 C 365.732 381.367,369.624 379.104,377.706 371.784 C 381.523 368.328,390.229 360.550,397.054 354.500 C 415.710 337.961,421.859 331.775,422.544 328.854 C 423.072 326.602,422.333 325.377,417.582 320.626 C 414.512 317.556,412.000 314.584,412.000 314.022 C 412.000 311.811,414.408 313.240,419.543 318.500 C 425.105 324.197,427.563 325.058,431.584 322.715 C 433.902 321.364,442.667 313.871,453.477 304.000 C 457.392 300.425,465.486 293.225,471.463 288.000 C 477.440 282.775,483.887 276.830,485.790 274.789 C 489.094 271.244,489.367 271.142,491.875 272.518 C 493.319 273.311,495.400 274.756,496.500 275.730 M506.000 288.500 C 506.000 288.775,505.775 289.000,505.500 289.000 C 505.225 289.000,505.000 288.775,505.000 288.500 C 505.000 288.225,505.225 288.000,505.500 288.000 C 505.775 288.000,506.000 288.225,506.000 288.500 M536.688 316.128 C 539.948 320.597,540.419 321.095,548.394 328.474 C 551.242 331.110,553.000 333.596,553.000 334.988 C 553.000 337.846,542.795 359.453,518.796 407.403 C 500.526 443.907,495.257 453.590,494.225 452.559 C 493.960 452.294,494.266 450.002,494.904 447.467 C 496.172 442.430,507.900 409.489,510.399 403.946 C 511.253 402.051,516.669 388.257,522.434 373.293 C 543.353 318.997,541.961 317.288,515.267 364.500 C 508.114 377.150,500.610 390.650,498.591 394.500 C 496.572 398.350,492.992 404.650,490.636 408.500 C 483.116 420.788,455.283 470.531,454.511 473.062 C 454.102 474.403,452.761 476.850,451.531 478.500 C 450.301 480.150,444.891 489.150,439.508 498.500 C 417.449 536.817,413.627 542.961,412.530 541.863 C 411.476 540.809,419.151 522.810,431.021 498.500 C 437.198 485.850,442.639 473.547,443.112 471.160 C 443.586 468.774,445.173 465.399,446.640 463.660 C 448.106 461.922,456.722 445.425,465.786 427.000 C 478.861 400.422,482.365 392.436,482.748 388.353 C 483.144 384.126,483.749 382.822,486.132 381.061 C 489.313 378.708,503.997 350.339,515.556 324.213 C 519.136 316.121,522.808 308.940,523.715 308.256 C 526.048 306.498,532.536 310.434,536.688 316.128 M428.783 346.250 C 418.612 353.314,376.178 387.094,375.607 388.581 C 375.273 389.451,375.000 390.877,375.000 391.749 C 375.000 393.595,400.543 419.720,403.160 420.551 C 406.016 421.457,408.463 419.492,414.722 411.264 C 458.432 353.801,455.844 359.008,445.587 349.159 C 437.976 341.850,435.689 341.454,428.783 346.250 " stroke="none" fill="#40c9ff" fill-rule="evenodd"/>
</svg>
